<?xml version="1.0" encoding="utf-8"?>
<!-- Generator: Adobe Illustrator 27.5.0, SVG Export Plug-In . SVG Version: 6.00 Build 0)  -->
<svg version="1.1" id="Capa_1" xmlns="http://www.w3.org/2000/svg" xmlns:xlink="http://www.w3.org/1999/xlink" x="0px" y="0px"
	 viewBox="0 0 2122 2122" style="enable-background:new 0 0 2122 2122;" xml:space="preserve">
<g>
	<path style="fill:#472713;" d="M1857.66,863.046c-3.427-83.725-32.457-162.573-124.905-167.222
		c-58.452-2.939-105.448,12.262-156.644,27.122v-63.334c0,112.354-294.022,203.434-656.719,203.434
		c-362.695,0-656.718-91.08-656.718-203.434v348.81c0,361.194,295.523,656.719,656.718,656.719h0.001
		c260.656,0,487.086-153.917,592.959-375.339c-0.007,0.016-0.014,0.03-0.02,0.044c82.385,3.706,196.642-14.764,257.189-75.564
		C1853.692,1129.753,1862.249,975.183,1857.66,863.046z M1731.583,940.883c-1.396,30.865-7.555,61.49-16.365,91.053
		c-10.33,34.662-40.339,71.069-74.654,87.673c-27.279,13.2-54.936,15.766-77.379,18.256c0,0.002-0.001,0.004-0.001,0.006
		c8.46-41.883,12.928-85.169,12.928-129.449V877.145c43.105-7.808,112.531-38.972,139.191-15.459
		C1735.196,879.232,1732.66,917.075,1731.583,940.883z"/>
	<ellipse style="fill:#F6EFE9;" cx="919.392" cy="659.613" rx="656.718" ry="203.433"/>
	<ellipse style="fill:#EFDAD6;" cx="919.393" cy="659.613" rx="614.773" ry="168.811"/>
	<ellipse style="fill:#EFDAD6;" cx="919.393" cy="659.613" rx="614.773" ry="168.811"/>
	<path style="fill:#673522;" d="M332.207,709.765c77.784,68.741,311.255,118.658,587.185,118.658s509.4-49.917,587.184-118.658
		c-77.784-68.742-311.254-118.659-587.184-118.659S409.992,641.023,332.207,709.765z"/>
	<path style="fill:#864D37;" d="M1411.154,658.641c5.471,8.812,11.67,17.178,16.659,26.285c4.329,7.902,8.106,16.926,7.16,26.128
		c-1.542,15.009-14.159,23.802-26.886,29.475c-16.892,7.53-35.313,11.499-53.448,14.692c-17.343,3.054-34.835,5.149-52.339,7.034
		c-21.456,2.31-42.954,4.137-64.43,6.271c-30.427,3.023-60.839,6.211-91.313,8.743c-29.971,2.491-60.02,4.388-90.101,4.665
		c-14.016,0.129-28.306,0.412-42.258-1.105c-11.693-1.271-23.124-4.105-34.142-8.201c-42.654-15.852-78.449-49.14-125.174-53.515
		c-7.018-0.657-13.467-0.481-20.342,0.759c-5.736,1.035-11.43,2.305-17.114,3.593c-14.033,3.18-28.023,6.546-42.15,9.289
		c-14.69,2.852-29.6,5.203-44.582,5.651c-12.641,0.378-25.948-0.499-37.615-5.791c-10.432-4.731-17.949-13.527-20.706-24.682
		c-1.73-7.001-1.768-14.35-0.957-21.48c0.662-5.823,1.453-11.966,3.723-17.417c4.269-10.256,10.739-19.68,16.375-29.208
		c6.94-11.732,13.966-23.683,18.77-36.482c0.267-0.711,0.547-1.494,0.825-2.267c-180.413,17.841-321.734,58.165-378.902,108.688
		c77.784,68.742,311.255,118.659,587.185,118.659c275.931,0,509.4-49.917,587.185-118.659
		C1485.489,691.127,1452.876,673.891,1411.154,658.641z"/>
	<g>
		<path style="fill:#673522;" d="M599.261,686.277c0,6.842-11.72,12.389-26.178,12.389s-26.178-5.547-26.178-12.389
			c0-6.842,11.72-12.389,26.178-12.389S599.261,679.435,599.261,686.277z"/>
		<path style="fill:#673522;" d="M651.617,640.901c0,6.842-11.72,12.389-26.178,12.389s-26.179-5.547-26.179-12.389
			c0-6.843,11.721-12.389,26.179-12.389S651.617,634.059,651.617,640.901z"/>
		<path style="fill:#673522;" d="M525.963,673.888c0,6.842-11.72,12.389-26.178,12.389c-14.458,0-26.178-5.547-26.178-12.389
			c0-6.842,11.72-12.389,26.178-12.389C514.242,661.499,525.963,667.045,525.963,673.888z"/>
		<path style="fill:#673522;" d="M651.617,722.154c0,6.842-11.72,12.389-26.178,12.389s-26.179-5.547-26.179-12.389
			c0-6.842,11.721-12.389,26.179-12.389S651.617,715.312,651.617,722.154z"/>
		<path style="fill:#673522;" d="M703.974,758.068c0,6.842-11.72,12.389-26.178,12.389c-14.458,0-26.178-5.547-26.178-12.389
			c0-6.842,11.72-12.389,26.178-12.389C692.254,745.679,703.974,751.226,703.974,758.068z"/>
		<path style="fill:#673522;" d="M782.508,758.068c0,6.842-11.72,12.389-26.178,12.389c-14.458,0-26.178-5.547-26.178-12.389
			c0-6.842,11.72-12.389,26.178-12.389C770.788,745.679,782.508,751.226,782.508,758.068z"/>
		<ellipse style="fill:#673522;" cx="982.598" cy="794.718" rx="26.178" ry="12.389"/>
		<path style="fill:#673522;" d="M573.083,715.959c0,3.422-5.86,6.195-13.089,6.195c-7.229,0-13.089-2.773-13.089-6.195
			c0-3.421,5.86-6.194,13.089-6.194C567.223,709.765,573.083,712.538,573.083,715.959z"/>
		<path style="fill:#673522;" d="M638.528,686.277c0,3.422-5.86,6.195-13.089,6.195c-7.229,0-13.089-2.773-13.089-6.195
			c0-3.421,5.86-6.194,13.089-6.194C632.668,680.082,638.528,682.856,638.528,686.277z"/>
		<path style="fill:#673522;" d="M825.266,745.68c0,3.421-5.86,6.194-13.089,6.194c-7.229,0-13.089-2.773-13.089-6.194
			c0-3.422,5.86-6.195,13.089-6.195C819.405,739.485,825.266,742.258,825.266,745.68z"/>
		<path style="fill:#673522;" d="M862.787,739.485c0,3.422-5.86,6.195-13.089,6.195c-7.229,0-13.089-2.773-13.089-6.195
			c0-3.421,5.86-6.194,13.089-6.194C856.927,733.291,862.787,736.064,862.787,739.485z"/>
		<path style="fill:#673522;" d="M901.182,751.874c0,3.421-5.86,6.194-13.089,6.194c-7.229,0-13.089-2.773-13.089-6.194
			c0-3.421,5.86-6.194,13.089-6.194C895.322,745.68,901.182,748.453,901.182,751.874z"/>
		<path style="fill:#673522;" d="M690.884,628.512c0,3.422-5.86,6.195-13.089,6.195c-7.229,0-13.089-2.773-13.089-6.195
			c0-3.421,5.86-6.194,13.089-6.194C685.024,622.318,690.884,625.091,690.884,628.512z"/>
		<ellipse style="fill:#673522;" cx="651.617" cy="661.499" rx="13.089" ry="6.194"/>
	</g>
	<path style="fill:#2B1400;" d="M910.309,1559.77c-23.405-4.134-47.088-7.875-70.078-13.982
		c-19.899-5.287-39.645-12.906-55.611-26.237c-17.583-14.681-26.845-34.754-32.121-56.632c-6.039-25.042-9.331-50.733-11.127-76.412
		c-2.565-36.655-7.817-73.069-10.623-109.706c-5.027-65.625-17.254-132.624-4.899-198.2
		c21.606-114.67,126.074-149.36,218.119-196.585c12.938-6.639,25.878-13.278,38.817-19.916c-20.865,0.62-42.005,0.947-63.395,0.947
		c-362.695,0-656.718-91.079-656.718-203.433l0,0v348.81c0,361.196,295.523,656.719,656.719,656.719
		c98.325,0,191.76-21.941,275.715-61.104c-29.255-3.256-58.452-7.064-87.577-11.318
		C1041.572,1583.085,975.944,1571.365,910.309,1559.77z"/>
	<path style="fill:#724128;" d="M1361.321,810.079c17.822,16.274,34.887,33.34,50.332,51.887
		c27.607,33.151,48.946,70.951,60.193,112.755c6.557,24.37,9.047,49.185,10.891,74.278c2.345,31.92,3.883,63.896,4.769,95.889
		c1.777,64.178,0.931,128.403-1.226,192.562c-0.015,0.443-0.036,0.887-0.051,1.33c57.031-97.205,89.881-210.109,89.881-330.357
		V659.613C1576.11,719.242,1493.27,772.872,1361.321,810.079z"/>
	<path style="fill:#724128;" d="M1857.66,863.045c-3.427-83.724-32.456-162.572-124.905-167.221
		c-58.452-2.939-105.448,12.262-156.645,27.121v154.2c43.105-7.809,112.531-38.972,139.191-15.459
		c19.894,17.545,17.359,55.389,16.282,79.197c-1.396,30.865-7.555,61.49-16.365,91.052c-10.33,34.663-40.339,71.069-74.654,87.674
		c-27.279,13.2-54.936,15.766-77.378,18.256c-10.751,53.23-27.992,104.177-50.854,151.982
		c82.385,3.706,196.642-14.764,257.189-75.564C1853.692,1129.754,1862.249,975.183,1857.66,863.045z"/>
	<path style="fill:#66341F;" d="M1616.425,1278.489c2.447-30.466,1.329-62.628,12.061-91.711
		c4.915-13.318,12.558-25.566,23.438-34.821c12.064-10.261,26.338-17.323,40.648-23.849c12.709-5.797,25.777-11.534,36.299-20.949
		c11.617-10.395,18.618-24.274,24.548-38.456c12.018-28.741,19.659-59.586,24.447-90.312c4.856-31.162,8.337-66.238-1.664-97.426
		c-14.456-45.08-44.066-47.984-83.514-61.947c-38.669-13.687-50.691-47.792-45.681-86.37c0.916-7.052,2.195-15.517,6.366-21.469
		c3.076-4.391,7.46-7.937,11.872-11.007c-30.375,5.216-59.036,14.04-89.134,22.776v154.2
		c43.105-7.809,112.531-38.972,139.191-15.459c19.894,17.545,17.359,55.389,16.282,79.197c-1.396,30.865-7.555,61.49-16.365,91.052
		c-10.33,34.663-40.339,71.069-74.654,87.674c-27.279,13.2-54.936,15.766-77.378,18.256
		c-10.751,53.23-27.992,104.177-50.854,151.982c31.485,1.416,67.623-0.442,103.642-6.628
		C1616.118,1281.641,1616.298,1280.068,1616.425,1278.489z"/>
</g>
</svg>
