<svg id="visual" viewBox="0 0 960 540" width="960" height="540" xmlns="http://www.w3.org/2000/svg" xmlns:xlink="http://www.w3.org/1999/xlink" version="1.1"><path d="M784 540L773.3 522C762.7 504 741.3 468 715.3 432C689.3 396 658.7 360 640.2 324C621.7 288 615.3 252 614 216C612.7 180 616.3 144 627.8 108C639.3 72 658.7 36 668.3 18L678 0L960 0L960 18C960 36 960 72 960 108C960 144 960 180 960 216C960 252 960 288 960 324C960 360 960 396 960 432C960 468 960 504 960 522L960 540Z" fill="#6f4e37" stroke-linecap="round" stroke-linejoin="miter"></path></svg>