<svg id="visual" viewBox="0 0 1920 1080" width="1920" height="1080" xmlns="http://www.w3.org/2000/svg" xmlns:xlink="http://www.w3.org/1999/xlink" version="1.1"><path d="M1566 1080L1544.7 1044C1523.3 1008 1480.7 936 1428.8 864C1377 792 1316 720 1279 648C1242 576 1229 504 1226.2 432C1223.3 360 1230.7 288 1253.8 216C1277 144 1316 72 1335.5 36L1355 0L1920 0L1920 36C1920 72 1920 144 1920 216C1920 288 1920 360 1920 432C1920 504 1920 576 1920 648C1920 720 1920 792 1920 864C1920 936 1920 1008 1920 1044L1920 1080Z" fill="#6f4e37" stroke-linecap="round" stroke-linejoin="miter"></path></svg>